<svg width="25" height="25" viewBox="0 0 25 25" fill="none" xmlns="http://www.w3.org/2000/svg">
<path d="M10.4154 5.20833H14.582C14.582 4.6558 14.3625 4.12589 13.9718 3.73519C13.5811 3.34449 13.0512 3.125 12.4987 3.125C11.9462 3.125 11.4163 3.34449 11.0256 3.73519C10.6349 4.12589 10.4154 4.6558 10.4154 5.20833ZM8.85287 5.20833C8.85287 4.72956 8.94717 4.25547 9.13039 3.81313C9.31361 3.3708 9.58216 2.96889 9.92071 2.63034C10.2593 2.29179 10.6612 2.02324 11.1035 1.84002C11.5458 1.6568 12.0199 1.5625 12.4987 1.5625C12.9775 1.5625 13.4516 1.6568 13.8939 1.84002C14.3362 2.02324 14.7381 2.29179 15.0767 2.63034C15.4152 2.96889 15.6838 3.3708 15.867 3.81313C16.0502 4.25547 16.1445 4.72956 16.1445 5.20833H22.1341C22.3413 5.20833 22.54 5.29064 22.6865 5.43716C22.8331 5.58367 22.9154 5.78238 22.9154 5.98958C22.9154 6.19678 22.8331 6.3955 22.6865 6.54201C22.54 6.68852 22.3413 6.77083 22.1341 6.77083H20.7591L19.5404 19.3865C19.4469 20.3531 18.9967 21.2503 18.2775 21.9029C17.5584 22.5556 16.6219 22.917 15.6508 22.9167H9.34662C8.37564 22.9168 7.43943 22.5553 6.72052 21.9026C6.00161 21.2499 5.55155 20.3529 5.45807 19.3865L4.23828 6.77083H2.86328C2.65608 6.77083 2.45737 6.68852 2.31085 6.54201C2.16434 6.3955 2.08203 6.19678 2.08203 5.98958C2.08203 5.78238 2.16434 5.58367 2.31085 5.43716C2.45737 5.29064 2.65608 5.20833 2.86328 5.20833H8.85287ZM10.9362 10.1562C10.9362 9.94905 10.8539 9.75034 10.7074 9.60382C10.5609 9.45731 10.3621 9.375 10.1549 9.375C9.94775 9.375 9.74903 9.45731 9.60252 9.60382C9.45601 9.75034 9.3737 9.94905 9.3737 10.1562V17.9688C9.3737 18.1759 9.45601 18.3747 9.60252 18.5212C9.74903 18.6677 9.94775 18.75 10.1549 18.75C10.3621 18.75 10.5609 18.6677 10.7074 18.5212C10.8539 18.3747 10.9362 18.1759 10.9362 17.9688V10.1562ZM14.8424 9.375C15.0496 9.375 15.2484 9.45731 15.3949 9.60382C15.5414 9.75034 15.6237 9.94905 15.6237 10.1562V17.9688C15.6237 18.1759 15.5414 18.3747 15.3949 18.5212C15.2484 18.6677 15.0496 18.75 14.8424 18.75C14.6352 18.75 14.4365 18.6677 14.29 18.5212C14.1435 18.3747 14.0612 18.1759 14.0612 17.9688V10.1562C14.0612 9.94905 14.1435 9.75034 14.29 9.60382C14.4365 9.45731 14.6352 9.375 14.8424 9.375ZM7.01328 19.2365C7.06947 19.8163 7.33958 20.3544 7.77096 20.7459C8.20234 21.1375 8.76406 21.3543 9.34662 21.3542H15.6508C16.2333 21.3543 16.7951 21.1375 17.2264 20.7459C17.6578 20.3544 17.9279 19.8163 17.9841 19.2365L19.1904 6.77083H5.80703L7.01328 19.2365Z" fill="#E31E24"/>
</svg>
