<svg width="60" height="60" viewBox="0 0 60 60" fill="none" xmlns="http://www.w3.org/2000/svg">
<path d="M50.625 9.84375H9.375C8.50476 9.84375 7.67016 10.1895 7.05481 10.8048C6.43945 11.4202 6.09375 12.2548 6.09375 13.125V46.875C6.09375 47.7452 6.43945 48.5798 7.05481 49.1952C7.67016 49.8105 8.50476 50.1562 9.375 50.1562H50.625C51.4952 50.1562 52.3298 49.8105 52.9452 49.1952C53.5605 48.5798 53.9062 47.7452 53.9062 46.875V13.125C53.9062 12.2548 53.5605 11.4202 52.9452 10.8048C52.3298 10.1895 51.4952 9.84375 50.625 9.84375ZM9.375 12.6562H50.625C50.7493 12.6562 50.8685 12.7056 50.9565 12.7935C51.0444 12.8815 51.0938 13.0007 51.0938 13.125V38.3367L44.1867 31.4297C43.882 31.125 43.5203 30.8832 43.1222 30.7183C42.724 30.5534 42.2973 30.4685 41.8664 30.4685C41.4355 30.4685 41.0088 30.5534 40.6106 30.7183C40.2125 30.8832 39.8508 31.125 39.5461 31.4297L34.5258 36.45L23.8828 25.8047C23.5781 25.5 23.2164 25.2582 22.8183 25.0933C22.4201 24.9284 21.9934 24.8435 21.5625 24.8435C21.1316 24.8435 20.7049 24.9284 20.3067 25.0933C19.9086 25.2582 19.5469 25.5 19.2422 25.8047L8.90625 36.1406V13.125C8.90625 13.0007 8.95564 12.8815 9.04354 12.7935C9.13145 12.7056 9.25068 12.6562 9.375 12.6562ZM8.90625 46.875V40.118L21.2297 27.7945C21.2733 27.7506 21.3251 27.7157 21.3822 27.6919C21.4394 27.6681 21.5006 27.6559 21.5625 27.6559C21.6244 27.6559 21.6856 27.6681 21.7428 27.6919C21.7999 27.7157 21.8517 27.7506 21.8953 27.7945L41.4445 47.3438H9.375C9.25068 47.3438 9.13145 47.2944 9.04354 47.2065C8.95564 47.1185 8.90625 46.9993 8.90625 46.875ZM50.625 47.3438H45.4219L36.5156 38.4375L41.5336 33.4172C41.5771 33.3736 41.6288 33.339 41.6857 33.3154C41.7426 33.2918 41.8036 33.2797 41.8652 33.2797C41.9268 33.2797 41.9878 33.2918 42.0447 33.3154C42.1016 33.339 42.1533 33.3736 42.1969 33.4172L51.1031 42.3234V46.875C51.1031 46.9374 51.0907 46.9991 51.0666 47.0566C51.0424 47.1141 51.0071 47.1662 50.9625 47.2098C50.918 47.2535 50.8652 47.2878 50.8073 47.3108C50.7493 47.3338 50.6873 47.345 50.625 47.3438ZM34.2188 23.4375C34.2188 22.974 34.3562 22.5208 34.6137 22.1354C34.8713 21.75 35.2373 21.4496 35.6656 21.2722C36.0939 21.0948 36.5651 21.0484 37.0197 21.1388C37.4744 21.2292 37.892 21.4524 38.2198 21.7802C38.5476 22.108 38.7708 22.5256 38.8612 22.9803C38.9516 23.4349 38.9052 23.9061 38.7278 24.3344C38.5505 24.7627 38.25 25.1287 37.8646 25.3863C37.4792 25.6438 37.0261 25.7812 36.5625 25.7812C35.9409 25.7812 35.3448 25.5343 34.9052 25.0948C34.4657 24.6552 34.2188 24.0591 34.2188 23.4375Z" fill="#E94B50"/>
</svg>
