<svg width="24" height="24" viewBox="0 0 24 24" fill="none" xmlns="http://www.w3.org/2000/svg">
<path d="M13.0501 4.4001C13.0501 4.12162 12.9395 3.85455 12.7426 3.65764C12.5456 3.46072 12.2786 3.3501 12.0001 3.3501C11.7216 3.3501 11.4545 3.46072 11.2576 3.65764C11.0607 3.85455 10.9501 4.12162 10.9501 4.4001V10.9501H4.4001C4.12162 10.9501 3.85455 11.0607 3.65764 11.2576C3.46072 11.4545 3.3501 11.7216 3.3501 12.0001C3.3501 12.2786 3.46072 12.5456 3.65764 12.7426C3.85455 12.9395 4.12162 13.0501 4.4001 13.0501H10.9501V19.6001C10.9501 19.8786 11.0607 20.1456 11.2576 20.3426C11.4545 20.5395 11.7216 20.6501 12.0001 20.6501C12.2786 20.6501 12.5456 20.5395 12.7426 20.3426C12.9395 20.1456 13.0501 19.8786 13.0501 19.6001V13.0501H19.6001C19.8786 13.0501 20.1456 12.9395 20.3426 12.7426C20.5395 12.5456 20.6501 12.2786 20.6501 12.0001C20.6501 11.7216 20.5395 11.4545 20.3426 11.2576C20.1456 11.0607 19.8786 10.9501 19.6001 10.9501H13.0501V4.4001Z" fill="#E31E24" stroke="#E31E24" stroke-width="0.5"/>
</svg>
